:SAMPLES-PER-SECOND 30
:FRAME-RANGE 1-2643
:FULLY-SPECIFIED
:DEGREES
1735
root  27.9329 34.17 48.5833 -175.499 62.0915 -179.559
RightUpLeg  -37.678 5.98565 -27.3895
RightLeg  36.7149 -10.082 -8.23127
RightFoot  8.24349 -2.9648 17.3885
RightToes  7.56698e-010 0 -3.6325e-017
Spine  35.4332 -2.81061 5.53238
Spine1  -3.40196 -1.73282 4.00225
HEad  -30.1362 -50.2292 27.4502
LeftShoulder1  1.62477 -5.91945 -9.92634
LeftArm  -20.5355 -54.4909 -49.7469
LeftForeArm  33.803 4.58332 -12.3002
LeftHand  -0.0357261 -0.828662 0.755926
RightShoulder  1.7956 14.1594 1.95202
RightArm  -31.8933 14.5316 -4.31726
RightForeArm  37.5022 8.49032 7.23234
RightHand  -0.520572 2.25143 -8.09793
LeftUpLeg  -41.3665 4.9271 -10.6978
LeftLeg  55.1995 0.261101 0.920243
LeftFoot  -18.3322 0.616002 8.26212
LeftToes  1.48244e-010 1.61973e-010 3.308e-011
1736
root  28.7278 33.6199 49.3097 -176.859 60.8825 179.249
RightUpLeg  -38.503 4.27591 -26.414
RightLeg  38.3663 -11.3052 -9.70809
RightFoot  3.49602 -2.59144 19.903
RightToes  7.56698e-010 0 -3.6325e-017
Spine  35.8055 -2.69078 6.40405
Spine1  -3.27669 -1.45378 4.12433
HEad  -34.6142 -53.4683 32.2242
LeftShoulder1  1.62867 -5.36333 -11.1766
LeftArm  -28.6785 -46.1877 -34.7417
LeftForeArm  26.7502 5.2205 -11.907
LeftHand  0.0673429 -0.661356 -1.23151
RightShoulder  1.2984 12.1584 -0.177476
RightArm  -32.3178 10.3504 -5.28468
RightForeArm  32.3053 -6.67679 5.47855
RightHand  -0.0545565 1.41851 -1.06522
LeftUpLeg  -42.6972 5.96493 -10.0467
LeftLeg  59.2796 0.46194 1.41627
LeftFoot  -20.3536 0.723493 7.61327
LeftToes  1.48244e-010 1.61973e-010 3.308e-011
1737
root  29.6424 32.8579 50.0189 -179.544 60.2877 176.989
RightUpLeg  -40.498 4.55912 -26.9537
RightLeg  45.8609 -9.10643 -10.2157
RightFoot  -2.74959 -2.01681 26.1636
RightToes  7.56698e-010 0 -3.6325e-017
Spine  37.2606 -2.6484 6.60277
Spine1  -4.15827 -1.04681 3.43969
HEad  -39.3486 -54.8997 35.7805
LeftShoulder1  1.61042 -4.28212 -13.7327
LeftArm  -29.6546 -35.6033 -21.3377
LeftForeArm  23.3512 3.33824 -13.0422
LeftHand  0.11585 -0.674964 -2.16192
RightShoulder  1.02952 9.78375 -0.792402
RightArm  -29.7384 4.78231 -6.07503
RightForeArm  26.9909 -6.96049 6.79827
RightHand  -0.593894 6.17724 -6.281
LeftUpLeg  -43.7664 6.1266 -9.39718
LeftLeg  64.2735 0.59014 2.02299
LeftFoot  -23.0886 0.748832 5.92251
LeftToes  1.48244e-010 1.61973e-010 3.308e-011
1738
root  30.5373 32.058 50.6263 178.504 59.4579 176.131
RightUpLeg  -42.3045 3.87764 -26.298
RightLeg  53.4805 -6.22571 -9.33313
RightFoot  -7.77328 -0.887603 26.3359
RightToes  7.56698e-010 0 -3.6325e-017
Spine  38.8825 -3.30956 6.78634
Spine1  -4.69283 -1.44324 3.17616
HEad  -41.8342 -53.5831 37.1795
LeftShoulder1  1.40248 -2.97161 -14.7969
LeftArm  -26.8636 -22.1683 -11.4022
LeftForeArm  19.2073 -0.329304 -13.8424
LeftHand  0.11728 -0.236884 -2.41257
RightShoulder  0.692127 5.1497 -0.50614
RightArm  -27.8685 4.27419 -6.04607
RightForeArm  27.471 -7.01251 7.14765
RightHand  -0.055605 1.44855 -1.08111
LeftUpLeg  -44.1835 5.47832 -8.00212
LeftLeg  69.2922 0.762098 3.09826
LeftFoot  -26.0614 0.636197 3.70952
LeftToes  1.48244e-010 1.61973e-010 3.308e-011
1739
root  31.2881 31.3117 50.9773 179.594 59.3003 178.016
RightUpLeg  -44.0943 2.46026 -24.1983
RightLeg  59.311 -4.23435 -8.1525
RightFoot  -11.5303 -0.0364708 25.5156
RightToes  7.56698e-010 0 -3.6325e-017
Spine  39.4641 -3.77416 7.12731
Spine1  -5.22472 -2.1506 5.27193
HEad  -38.0807 -52.2991 33.6016
LeftShoulder1  1.17344 -2.20085 -13.5979
LeftArm  -22.3936 -6.54239 -6.71659
LeftForeArm  11.23 -3.35444 -13.8023
LeftHand  0.125194 0.789013 -3.30766
RightShoulder  0.546728 3.98687 -1.30911
RightArm  -30.0501 5.57698 -5.01003
RightForeArm  15.4787 -7.10731 7.28824
RightHand  0.0660118 0.384277 1.29193
LeftUpLeg  -45.1827 4.49872 -5.66694
LeftLeg  73.9995 1.04435 5.29002
LeftFoot  -28.7623 0.391907 1.42734
LeftToes  1.48244e-010 1.61973e-010 3.308e-011
